<?xml version="1.0" encoding="utf-8"?>
<!-- Generator: Adobe Illustrator 18.1.1, SVG Export Plug-In . SVG Version: 6.00 Build 0)  -->
<svg version="1.1" id="Layer_1" xmlns="http://www.w3.org/2000/svg" xmlns:xlink="http://www.w3.org/1999/xlink" x="0px" y="0px"
	 width="100px" height="100px" viewBox="0 0 100 100" enable-background="new 0 0 100 100" xml:space="preserve">
<g>
	<path d="M48.5,34c0.4,3.5,0.8,4.1,1.9,4.1c2,0,4.3-2.1,4.3-5.2c0-0.3,0-0.8-0.1-1.1c-0.5-3-4.9-9.4-13.4-14.9l-1.1,0.8
		C45.8,24.2,48.2,31.5,48.5,34z"/>
	<path d="M99.3,47.4l-7.6-7.6l-4.5,6.9H75.8V11.6l3.7-2.3c0.5-0.3,0.7-0.6,0.7-0.8c0-0.3-0.2-0.7-0.6-1l-7.3-6.3l-3.8,5.2H32L24.5,0
		c0.3,4.4,0.4,8.8,0.4,13.3v33.4H7.7c-2.4,0-5-0.2-7.7-0.4l2.9,4.1c1.8-0.8,4.8-1.2,7-1.2h14.9c-0.2,24.4-6.3,37.1-21,49.7l1.1,1.1
		c16.8-12,24.5-23.9,24.9-50.8h40.9v36.6c0,2-0.7,3-3.8,3c-2.9,0-7.9-0.9-16.3-2.8l-0.2,1.2c11.8,4.6,14.8,5.9,15.9,10.3
		c0.2,0.9,0.5,1.3,0.9,1.3c0.3,0,0.6-0.2,1.2-0.4c5.7-3.1,7.4-5.9,7.4-13.3v-36h23c0.8,0,1.2-0.2,1.2-0.6
		C100,48.3,99.8,47.9,99.3,47.4z M70.8,46.8H29.9v-38h40.9V46.8z"/>
</g>
</svg>
